<?xml version="1.0" encoding="UTF-8" standalone="no"?>
<svg
   xmlns:dc="http://purl.org/dc/elements/1.1/"
   xmlns:cc="http://creativecommons.org/ns#"
   xmlns:rdf="http://www.w3.org/1999/02/22-rdf-syntax-ns#"
   xmlns:svg="http://www.w3.org/2000/svg"
   xmlns="http://www.w3.org/2000/svg"
   xmlns:sodipodi="http://sodipodi.sourceforge.net/DTD/sodipodi-0.dtd"
   xmlns:inkscape="http://www.inkscape.org/namespaces/inkscape"
   role="img"
   viewBox="0 0 24 24"
   version="1.1"
   id="svg5133"
   sodipodi:docname="gatsby.svg"
   inkscape:version="0.92.4 (5da689c313, 2019-01-14)">
  <metadata
     id="metadata5139">
    <rdf:RDF>
      <cc:Work
         rdf:about="">
        <dc:format>image/svg+xml</dc:format>
        <dc:type
           rdf:resource="http://purl.org/dc/dcmitype/StillImage" />
      </cc:Work>
    </rdf:RDF>
  </metadata>
  <defs
     id="defs5137" />
  <sodipodi:namedview
     pagecolor="#ffffff"
     bordercolor="#666666"
     borderopacity="1"
     objecttolerance="10"
     gridtolerance="10"
     guidetolerance="10"
     inkscape:pageopacity="0"
     inkscape:pageshadow="2"
     inkscape:window-width="1920"
     inkscape:window-height="1017"
     id="namedview5135"
     showgrid="false"
     inkscape:zoom="9.8333333"
     inkscape:cx="10.677966"
     inkscape:cy="12"
     inkscape:window-x="1912"
     inkscape:window-y="-8"
     inkscape:window-maximized="1"
     inkscape:current-layer="svg5133" />
  <title
     id="title5129">Gatsby icon</title>
  <path
     d="M12.001.007C5.326.007.007 5.326.007 12S5.326 23.995 12 23.995s11.994-5.319 11.994-11.994S18.676.007 12.001.007zM2.614 12.105l9.283 9.283c-5.111 0-9.283-4.172-9.283-9.283zm11.473 9.074L2.823 9.915C3.76 5.743 7.516 2.614 12 2.614a9.476 9.476 0 0 1 7.614 3.86L18.259 7.62a7.657 7.657 0 0 0-6.362-3.337A7.555 7.555 0 0 0 4.7 9.393l9.804 9.805c2.4-.835 4.276-2.92 4.798-5.424h-4.068v-1.773h6.154c0 4.485-3.129 8.24-7.301 9.178z"
     id="path5131"
     style="fill:#663399;fill-opacity:1" />
</svg>
