<?xml version="1.0" encoding="UTF-8" standalone="no"?>
<svg
   xmlns:dc="http://purl.org/dc/elements/1.1/"
   xmlns:cc="http://creativecommons.org/ns#"
   xmlns:rdf="http://www.w3.org/1999/02/22-rdf-syntax-ns#"
   xmlns:svg="http://www.w3.org/2000/svg"
   xmlns="http://www.w3.org/2000/svg"
   xmlns:xlink="http://www.w3.org/1999/xlink"
   xmlns:sodipodi="http://sodipodi.sourceforge.net/DTD/sodipodi-0.dtd"
   xmlns:inkscape="http://www.inkscape.org/namespaces/inkscape"
   role="img"
   viewBox="0 0 24 24"
   version="1.1"
   id="svg6854"
   sodipodi:docname="netlify.svg"
   inkscape:version="0.92.4 (5da689c313, 2019-01-14)">
  <metadata
     id="metadata6860">
    <rdf:RDF>
      <cc:Work
         rdf:about="">
        <dc:format>image/svg+xml</dc:format>
        <dc:type
           rdf:resource="http://purl.org/dc/dcmitype/StillImage" />
      </cc:Work>
    </rdf:RDF>
  </metadata>
  <defs
     id="defs6858">
    <linearGradient
       inkscape:collect="always"
       id="linearGradient7488">
      <stop
         style="stop-color:#5ca7c4;stop-opacity:0.98039216"
         offset="0"
         id="stop7484" />
      <stop
         style="stop-color:#3aadbc;stop-opacity:0;"
         offset="1"
         id="stop7486" />
    </linearGradient>
    <linearGradient
       inkscape:collect="always"
       xlink:href="#linearGradient7488"
       id="linearGradient7490"
       x1="11.79661"
       y1="11.084745"
       x2="-0.0020771027"
       y2="0.20338982"
       gradientUnits="userSpaceOnUse" />
  </defs>
  <sodipodi:namedview
     pagecolor="#ffffff"
     bordercolor="#666666"
     borderopacity="1"
     objecttolerance="10"
     gridtolerance="10"
     guidetolerance="10"
     inkscape:pageopacity="0"
     inkscape:pageshadow="2"
     inkscape:window-width="1920"
     inkscape:window-height="1017"
     id="namedview6856"
     showgrid="false"
     inkscape:zoom="9.8333333"
     inkscape:cx="10.677966"
     inkscape:cy="12"
     inkscape:window-x="1912"
     inkscape:window-y="-8"
     inkscape:window-maximized="1"
     inkscape:current-layer="svg6854" />
  <title
     id="title6850">Netlify icon</title>
  <path
     d="M16.934 8.519a1.044 1.044 0 0 1 .303.23l2.349-1.045-2.192-2.171-.491 2.954zM12.06 6.546a1.305 1.305 0 0 1 .209.574l3.497 1.482a1.044 1.044 0 0 1 .355-.177l.574-3.55-2.13-2.234-2.505 3.852v.053zm11.933 5.491l-3.748-3.748-2.548 1.044 6.264 2.662s.053.042.032.042zm-.627.606l-6.013-2.569a1.044 1.044 0 0 1-.7.407l-.647 3.957a1.044 1.044 0 0 1 .303.731l3.633.762 3.33-3.31v-.062zM15.4 9.25L12.132 7.86a1.2 1.2 0 0 1-1.044.543h-.199L8.185 12.58l7.225-3.132v.01a.887.887 0 0 1 0-.167.052.052 0 0 0-.01-.041zm3.967 7.308l-3.195-.658a1.096 1.096 0 0 1-.46.344l-.761 4.72 4.437-4.396s-.01.02-.021.02zm-4.469-.324a1.044 1.044 0 0 1-.616-.71l-5.95-1.222-.084.136 5.398 7.81.323-.324.919-5.67s.031.022.01.011zm-6.441-2.652l5.878 1.211a1.044 1.044 0 0 1 .824-.522l.637-3.894-.135-.115-7.308 3.132a1.817 1.817 0 0 1 .104.188zm-2.464.981l-.125-.125-2.537 1.044 1.232 1.222 1.399-2.172zm1.67.397a1.368 1.368 0 0 1-.563.125 1.389 1.389 0 0 1-.45-.073l-1.544 2.245 6.765 6.702 1.19-1.18zm-.95-2.641a1.702 1.702 0 0 1 .314 0 1.378 1.378 0 0 1 .344 0l2.735-4.25a1.19 1.19 0 0 1-.334-.824 1.242 1.242 0 0 1 0-.271l-3.32-1.535-2.672 2.6zm.303-7.402l3.237 1.378a1.242 1.242 0 0 1 .835-.282 1.357 1.357 0 0 1 .397.063l2.526-3.947L11.923.041 7.016 4.854s-.01.052 0 .063zm-1.21 8.164a1.566 1.566 0 0 1 .24-.334L3.278 8.613 0 11.797l5.804 1.284zm-.262.7L.533 12.735l2.203 2.235 2.777-1.18z"
     id="path6852"
     style="fill:url(#linearGradient7490);fill-opacity:1;opacity:1" />
</svg>
