<?xml version="1.0" encoding="UTF-8" standalone="no"?>
<svg
   xmlns:dc="http://purl.org/dc/elements/1.1/"
   xmlns:cc="http://creativecommons.org/ns#"
   xmlns:rdf="http://www.w3.org/1999/02/22-rdf-syntax-ns#"
   xmlns:svg="http://www.w3.org/2000/svg"
   xmlns="http://www.w3.org/2000/svg"
   xmlns:sodipodi="http://sodipodi.sourceforge.net/DTD/sodipodi-0.dtd"
   xmlns:inkscape="http://www.inkscape.org/namespaces/inkscape"
   role="img"
   viewBox="0 0 24 24"
   version="1.1"
   id="svg831"
   sodipodi:docname="xd.svg"
   inkscape:version="0.92.4 (5da689c313, 2019-01-14)">
  <metadata
     id="metadata837">
    <rdf:RDF>
      <cc:Work
         rdf:about="">
        <dc:format>image/svg+xml</dc:format>
        <dc:type
           rdf:resource="http://purl.org/dc/dcmitype/StillImage" />
        <dc:title>Adobe XD icon</dc:title>
      </cc:Work>
    </rdf:RDF>
  </metadata>
  <defs
     id="defs835" />
  <sodipodi:namedview
     pagecolor="#ffffff"
     bordercolor="#666666"
     borderopacity="1"
     objecttolerance="10"
     gridtolerance="10"
     guidetolerance="10"
     inkscape:pageopacity="0"
     inkscape:pageshadow="2"
     inkscape:window-width="1920"
     inkscape:window-height="1017"
     id="namedview833"
     showgrid="false"
     inkscape:zoom="24.98444"
     inkscape:cx="5.3647677"
     inkscape:cy="13.465378"
     inkscape:window-x="1912"
     inkscape:window-y="-8"
     inkscape:window-maximized="1"
     inkscape:current-layer="svg831" />
  <title
     id="title827">Adobe XD icon</title>
  <path
     d="M19.75.3H4.25C1.9.3 0 2.2 0 4.55v14.9c0 2.35 1.9 4.25 4.25 4.25h15.5c2.35 0 4.25-1.9 4.25-4.25V4.55C24 2.2 22.1.3 19.75.3zm3.24 18.76a3.623 3.623 0 0 1-3.62 3.64H4.63c-2 0-3.63-1.63-3.63-3.63V4.93c0-2 1.63-3.63 3.63-3.63h14.73a3.63 3.63 0 0 1 3.63 3.63v14.13zm-13.5-7.81l2.8 5.38c.05.08.02.16-.06.16h-1.74c-.11 0-.16-.03-.21-.13-.64-1.32-1.29-2.64-1.96-4.06H8.3c-.6 1.34-1.26 2.75-1.9 4.07-.05.08-.1.11-.18.11H4.57c-.1 0-.11-.08-.06-.14l2.74-5.22L4.6 6.14c-.06-.08 0-.14.06-.14h1.72c.1 0 .14.02.18.11.63 1.32 1.27 2.68 1.87 4.01h.02c.58-1.32 1.22-2.69 1.84-4 .05-.08.08-.13.18-.13h1.61c.08 0 .11.06.06.14l-2.65 5.12zm3.29 1.63c0-2.33 1.55-4.15 4.01-4.15.21 0 .32 0 .52.02V6.1c0-.06.05-.1.1-.1h1.58c.08 0 .1.03.1.08v9.18c0 .27 0 .61.05.98 0 .06-.02.08-.08.11-.84.4-1.72.58-2.56.58-2.17.01-3.72-1.33-3.72-4.05zm4.53-2.56c-.14-.06-.34-.1-.58-.1-1.26 0-2.14.97-2.14 2.58 0 1.84.9 2.58 2.03 2.58.24 0 .5-.03.69-.11v-4.95z"
     id="path829"
     style="fill:#2e001f;fill-opacity:1" />
  <path
     inkscape:connector-curvature="0"
     d="M 19.75,0.3 H 4.25 C 1.9,0.3 -1e-7,2.1999998 -1e-7,4.5499998 V 19.45 C -1e-7,21.8 1.9,23.7 4.25,23.7 h 15.5 C 22.1,23.7 24,21.8 24,19.45 V 4.5499998 C 24,2.1999998 22.1,0.3 19.75,0.3 Z m 3.24,18.76 c 0.0094,2.006391 -1.613587,3.638361 -3.62,3.64 H 4.63 c -2,0 -3.6300001,-1.63 -3.6300001,-3.63 V 4.9299998 c 0,-2 1.6300001,-3.63 3.6300001,-3.63 h 14.73 c 2.004794,0 3.63,1.625206 3.63,3.63 z"
     id="path829-1"
     style="fill:#ff27c1;fill-opacity:1"
     sodipodi:nodetypes="sssssssssccssssssc" />
</svg>
